<svg class="svg-canvas" viewBox="0 0 800 600" width="1600" height="1200" preserveAspectRatio="none" version="1.1" xmlns="http://www.w3.org/2000/svg" xmlns:xlink="http://www.w3.org/1999/xlink">
      <!--滤镜-->
      <defs></defs>
    
      <!-- 背景 -->
      <g id="background">
          <rect x="0" y="0" fill="#ffffff" width="800" height="600"></rect>
          
        </g>
    
      <!--元素-->
      
              <g id="shape_CfHBVesthC" ref="shape_CfHBVesthC" key="shape_CfHBVesthC" mask="">
                <g transform="translate(123.94064265094795,-26.258203963136964) rotate(0,407.17932122466067,357.8113545347192) scale(1,1)" style="opacity: 1;mix-blend-mode: undefined;" filter="">
                  <!--普通元素-->
                  <svg xmlns="http://www.w3.org/2000/svg" version="1.1" xmlns:xlink="http://www.w3.org/1999/xlink" width="814.3586424493213" height="715.6227090694385" viewBox="0 0 602.0926613422064 529.0926613422064" data-ligature="true" data-parent="shape_CfHBVesthC"><g data-role="text" data-width="160.20008" data-height="88" transform="translate(220.54633067110316, 220.54633067110316)"><path d="M7.13 0L39.26 0L39.26-8.23L15.81-8.23L15.81-51.39L7.13-51.39Z" transform="translate(0 70) " fill="#194122" stroke="#194122" stroke-width="0.123" data-glyph-w="41.612320000000004" data-glyph-h="89.62088" data-glyph-ascender="71.16736" data-glyph-descender="-18.45352" data-kerning="0"></path><path d="M33.67-4.48L38.52-4.48L56.46-40.14L56.46 0L65.14 0L65.14-51.39L51.68-51.39L36.17-19.12L20.66-51.39L7.13-51.39L7.13 0L15.81 0L15.81-40.14Z" transform="translate(41.612320000000004 70) " fill="#194122" stroke="#194122" stroke-width="0.123" data-glyph-w="72.27016" data-glyph-h="89.62088" data-glyph-ascender="71.16736" data-glyph-descender="-18.45352" data-kerning="0"></path><path d="M14.04-38.38C14.04-42.86 18.01-44.63 22.72-44.63C27.64-44.63 33.45-42.72 36.54-39.92L41.17-46.46C36.32-50.51 29.41-52.64 23.01-52.64C13.53-52.64 5.00-47.94 5.00-37.57C5.00-28.01 11.18-24.63 22.13-22.06C31.61-19.78 33.67-17.87 33.67-14.12C33.67-10.15 30.14-7.50 24.56-7.50C18.23-7.50 13.31-10.00 8.38-14.26L2.94-7.72C9.12-2.21 16.54 0.59 24.34 0.59C35.14 0.59 42.72-5.22 42.72-15.00C42.72-23.60 37.05-27.57 26.17-30.22C16.39-32.57 14.04-34.33 14.04-38.38Z" transform="translate(113.88248000000002 70) " fill="#194122" stroke="#194122" stroke-width="0.123" data-glyph-w="46.3176" data-glyph-h="89.62088" data-glyph-ascender="71.16736" data-glyph-descender="-18.45352" data-kerning="0"></path></g></svg>
                </g>
              </g>
              <!-- 遮罩层 -->
              <mask id="shape_vwKENdWaM6_mask" is-reverse="false">
                <!-- 白色像素下的所有内容都将可见 -->
                
                <g transform="translate(211.05009517715806,182.50761450769915) rotate(0,80.29900279396966,79.05191545663897) scale(1,1)" filter="">
                  <svg xmlns="http://www.w3.org/2000/svg" xmlns:xlink="http://www.w3.org/1999/xlink" fill="none" version="1.1" width="160.59800558793933" height="158.10383091327793" viewBox="0 0 117 118" class="style-removed" preserveAspectRatio="none" data-parent="shape_vwKENdWaM6"><g><path d="M116,19L117,76Q73,113,3,118L0,0L116,19Z" fill="#ffffff" fill-opacity="1" stroke-width="0"></path></g></svg>
                </g>
              </mask>
              <g id="shape_6fzdpjhOjG" ref="shape_6fzdpjhOjG" key="shape_6fzdpjhOjG" mask="">
                <g transform="translate(159.99999999999997,157.61044137508762) rotate(0,145.78339464123823,143.00780331977694) scale(1,1)" style="opacity: 1;mix-blend-mode: undefined;" filter="">
                  <!--普通元素-->
                  <svg version="1.1" id="图层_1" xmlns="http://www.w3.org/2000/svg" xmlns:xlink="http://www.w3.org/1999/xlink" x="0px" y="0px" width="291.56678928247646" height="286.0156066395539" viewBox="0 0 112.4 110.26" enable-background="new 0 0 112.4 110.26" xml:space="preserve" class="style-removed" preserveAspectRatio="none" data-parent="shape_6fzdpjhOjG">
<g>
	<path fill="#b2c77b" d="M93.3,40.52c-0.99,0.93-2.05,1.88-3.17,2.84l-0.46-20.57l-0.04-2.01l-0.05-1.89l-0.01-0.63l-0.03-1.38
		l-0.02-0.62l-0.09-4.27l-0.01-0.41l-1.29-0.2c0,0-1.97-0.35-5.17-0.91c-13-2.27-46.33-8-50.82-7.85c-2.66,0.1-5.26,0.34-6.54,2.04
		c-2.19,2.96-1.5,5.04-0.57,5.7c0.54,0.37,19.07,3.22,34.67,5.57c1.5,0.22,2.97,0.45,4.4,0.66c5.44,0.82,10.21,1.52,13.29,1.98
		c0.53,0.08,1.01,0.15,1.44,0.21C80.22,18.98,81,19.1,81,19.1l0.02,0.68l0.01,0.54l0.03,1.53l0.05,2.02l0.58,25.9
		c-5.77,3.96-12.16,7.59-19.09,10.81c-10.66,4.85-20.52,8.14-30.13,10.04c-4.04,0.78-7.72,1.24-11.15,1.38l-0.43-19.42l-0.06-2.6
		l-0.04-1.67l-0.01-0.65l-0.05-1.83l-0.01-0.59l-0.14-6.34l-0.06-2.44l-0.6-26.91c-0.01-0.67,0.16-2.25,0.4-3.22
		c0.87-3.54,3.95-5.59,8.4-6.29c4.28-0.68,56.33,8.2,56.33,8.2l7.55,1.18l0.01,0.56l0.05,2l0.09,3.98l0.01,0.71l0.03,1.3l0.02,0.71
		l0.04,1.99l0.05,2L93.3,40.52z" stroke-width="0"></path>
	<path fill="#b2c77b" d="M24.79,82.64c-0.48,0.03-0.95,0.05-1.43,0.07V82.7C23.84,82.69,24.32,82.67,24.79,82.64z" stroke-width="0"></path>
	<path fill="#b2c77b" d="M31.26,84.02l0.56,24.9c0.02,0.72-0.7,1.32-1.58,1.34c-0.9,0.02-1.62-0.55-1.64-1.26l-0.55-24.61
		C29.09,84.29,30.16,84.17,31.26,84.02z" stroke-width="0"></path>
	<path fill="#b2c77b" d="M28.48,82.34c-0.16,0.02-0.32,0.03-0.48,0.05v-0.01C28.16,82.37,28.32,82.35,28.48,82.34z" stroke-width="0"></path>
	<path fill="#b2c77b" d="M38.13,102.99c0.02,0.71-0.69,1.31-1.58,1.33c-0.9,0.02-1.62-0.55-1.64-1.26l-0.44-19.53
		c0.51-0.09,1.04-0.18,1.57-0.28c0.55-0.1,1.09-0.21,1.64-0.33L38.13,102.99z" stroke-width="0"></path>
	<path fill="#b2c77b" d="M63.28,75.15l0.5,22.1c0.02,0.72-0.7,1.31-1.58,1.33c-0.9,0.02-1.62-0.53-1.64-1.26l-0.36-15.9
		c-0.01-0.71-0.75-1.28-1.64-1.26c-0.9,0.02-1.59,0.62-1.58,1.33l0.47,20.82c0.02,0.71-0.7,1.31-1.58,1.33
		c-0.9,0.02-1.63-0.55-1.64-1.26l-0.44-19.69c-0.02-0.71-0.76-1.28-1.64-1.26c-0.9,0.02-1.6,0.62-1.58,1.33l0.51,22.83
		c0.01,0.71-0.7,1.31-1.58,1.33c-0.9,0.02-1.63-0.55-1.64-1.26L47.3,80.51c5.32-1.57,10.71-3.55,16.12-5.91
		C63.33,74.77,63.28,74.96,63.28,75.15z" stroke-width="0"></path>
	<path fill="#b2c77b" d="M44.09,81.4l0.47,21.12c0.02,0.71-0.69,1.31-1.58,1.33c-0.9,0.02-1.62-0.55-1.64-1.26l-0.46-20.38
		C41.95,81.96,43.02,81.7,44.09,81.4z" stroke-width="0"></path>
	<path fill="#b2c77b" d="M82.86,102.25c0.01,0.72-0.68,1.32-1.59,1.34c-0.5,0.01-0.95-0.16-1.25-0.46c-0.24-0.21-0.38-0.49-0.39-0.8
		l-0.4-18.14c-0.31-0.27-0.75-0.45-1.25-0.44c-0.9,0.03-1.6,0.62-1.58,1.34l0.33,14.77c0.01,0.72-0.7,1.31-1.58,1.33
		c-0.91,0.02-1.63-0.54-1.64-1.26l-0.4-17.83c-0.02-0.71-0.76-1.28-1.64-1.26c-0.9,0.02-1.6,0.62-1.58,1.33l0.29,13.25
		c0.02,0.71-0.69,1.31-1.58,1.33c-0.9,0.02-1.62-0.55-1.64-1.26L66.5,75.08c-0.01-0.64-0.6-1.16-1.37-1.24
		c0.93-0.42,1.85-0.85,2.78-1.29c5.06-2.46,9.75-5,14.12-7.67l0.67,29.67h-0.02L82.86,102.25z" stroke-width="0"></path>
	<path fill="#b2c77b" d="M94.29,84.63c0.01,0.72-0.7,1.32-1.59,1.34c-0.9,0.02-1.62-0.55-1.64-1.26l-0.57-25.44
		c1.08-0.77,2.14-1.56,3.18-2.35L94.29,84.63z" stroke-width="0"></path>
	<polygon fill="#b2c77b" points="88.08,12.79 87.09,13.67 81.03,12.74 74.78,11.78 31.41,5.12 31.92,4.21 77.78,11.22 77.8,11.22 
		84.79,12.29 84.8,12.29 	" stroke-width="0"></polygon>
	<polygon fill="#b2c77b" points="85.7,14.91 84.75,15.76 73.72,14.05 73.7,14.05 68.5,13.25 30.15,7.32 30.66,6.42 70.93,12.63 
		70.95,12.63 76.44,13.48 76.46,13.48 	" stroke-width="0"></polygon>
	<polygon fill="#b2c77b" points="83.36,17 83.03,17.3 83.02,17.3 82.43,17.83 81.3,17.65 81.29,17.65 67.74,15.54 67.73,15.54 
		63.12,14.82 63.11,14.82 28.91,9.48 29.42,8.57 65.23,14.17 65.24,14.17 70.05,14.92 	" stroke-width="0"></polygon>
	<g>
		<path fill="#194122" d="M104.29,21.9l-0.02-0.03l-0.01-0.03c-0.52-1.04-1.93-1.92-3.96-2.49c-1.76-0.47-3.85-0.71-6.2-0.71
			c-0.23,0-0.45,0-0.67,0.01c-0.21,0-0.41,0.01-0.62,0.03l0.04,1.99c0.18-0.01,0.37-0.01,0.55-0.01c0.67,0,1.34,0.01,2.01,0.04
			c2.61,0.1,5.21,0.46,7.55,1.24c0.55,0.19,1.08,0.41,1.58,0.66C104.48,22.34,104.4,22.1,104.29,21.9z M20.79,48.31
			c-4.42,3.41-7.58,6.32-10.16,9.32c-1.71,1.99-3,3.92-3.83,5.73C5.93,65.29,5.72,66.94,6.19,68l0.01,0.03l0.01,0.03
			c0.02,0.04,0.03,0.08,0.06,0.12c0.08-0.29,0.18-0.57,0.29-0.86c0.89-2.3,2.27-4.53,3.86-6.61c2.98-3.93,6.58-7.47,10.41-10.73
			L20.79,48.31z" stroke-width="0"></path>
		<path fill="#194122" d="M112.38,29.23c-0.11,1.62-0.52,3.13-1.05,4.55c-1.11,2.81-2.67,5.27-4.4,7.53
			c-3.47,4.52-7.53,8.39-11.82,11.92c-0.5,0.4-0.99,0.8-1.5,1.2c-1.04,0.82-2.1,1.62-3.17,2.41c-2.75,2.02-5.57,3.91-8.46,5.71
			c-4.82,3-9.83,5.71-14.93,8.19c-6.39,3.04-13,5.67-19.8,7.7c-1.06,0.32-2.13,0.62-3.2,0.91c-1.06,0.29-2.13,0.56-3.21,0.81
			c-1.06,0.27-2.14,0.51-3.21,0.73c-0.65,0.14-1.3,0.27-1.95,0.39c-0.42,0.08-0.84,0.15-1.26,0.22c-1.06,0.18-2.13,0.35-3.21,0.49
			c-0.9,0.14-1.81,0.25-2.73,0.35c-0.16,0.01-0.32,0.03-0.48,0.04v0.01c-1.06,0.11-2.14,0.19-3.21,0.25
			c-0.47,0.03-0.95,0.05-1.43,0.06c-0.11,0.01-0.22,0.02-0.33,0.02c-0.61,0.02-1.23,0.03-1.84,0.03c-0.75,0-1.49-0.01-2.25-0.04
			c-2.84-0.11-5.73-0.47-8.6-1.41c-1.43-0.49-2.86-1.13-4.18-2.09c-1.21-0.87-2.32-2.07-3.03-3.5c0.02,0.02,0.05,0.04,0.07,0.05
			c1.35,0.87,2.84,1.54,4.71,2.08c2.54,0.69,5.26,1.02,8.37,1.02h0.7c1.53-0.02,3.04-0.12,4.52-0.26c1.09-0.1,2.15-0.23,3.19-0.38
			c1.1-0.16,2.17-0.34,3.21-0.53c1.11-0.2,2.18-0.42,3.2-0.63c0.92-0.2,1.81-0.41,2.64-0.6c0.19-0.05,0.38-0.09,0.57-0.14
			c1.06-0.26,2.12-0.54,3.2-0.84c1.05-0.29,2.12-0.6,3.2-0.93c1.05-0.32,2.12-0.65,3.21-1.02c1.04-0.34,2.11-0.7,3.19-1.09
			c0.81-0.28,1.64-0.58,2.47-0.89c4.9-1.79,9.86-3.91,15.15-6.45c6.22-3,11.89-6.04,17.1-9.18c2.96-1.79,5.77-3.6,8.46-5.47
			c0.97-0.66,1.92-1.34,2.85-2.02c0.11-0.08,0.22-0.16,0.33-0.25c5.28-3.92,9.07-7.35,12.28-11.08c2.25-2.64,3.83-5.06,4.98-7.62
			c0.61-1.4,1.01-2.66,1.24-3.89C112.34,26.78,112.46,28.04,112.38,29.23z" stroke-width="0"></path>
		<path fill="#5bab17" d="M110.15,24.26c-0.18,1.58-0.65,3.04-1.24,4.4c-0.24,0.52-0.49,1.03-0.77,1.53
			c-1.1,2.06-2.45,3.89-3.91,5.61c-3.24,3.77-6.95,6.98-10.81,9.92c-0.48,0.37-0.97,0.73-1.46,1.09c-0.57,0.42-1.14,0.83-1.72,1.23
			c-2.76,1.96-5.58,3.81-8.46,5.57l-0.01-0.42l-0.03-1.04c2.92-1.95,5.74-4.03,8.45-6.25c0.22-0.17,0.43-0.35,0.65-0.53
			c0.85-0.72,1.7-1.45,2.52-2.2c3.16-2.83,6.11-5.86,8.63-9.17c1.58-2.08,2.96-4.31,3.85-6.61c0.11-0.29,0.21-0.57,0.29-0.86
			c0.27-0.87,0.45-1.73,0.5-2.56c0.06-1.11-0.11-2.15-0.58-3.02c-0.42-0.84-1.11-1.54-1.97-2.12c-0.93-0.61-2.06-1.08-3.26-1.41
			c-2.11-0.56-4.4-0.78-6.72-0.78c-0.24,0-0.47,0-0.71,0.01c-0.21,0-0.42,0.01-0.63,0.02l-0.01-0.71l-0.09-3.98
			c0.26,0.01,0.53,0.01,0.8,0.02c2.84,0.11,5.73,0.47,8.6,1.41c1.43,0.49,2.86,1.13,4.18,2.09c1.22,0.87,2.34,2.07,3.05,3.51
			c0.06,0.11,0.11,0.23,0.16,0.34c0.45,1,0.68,2.06,0.75,3.1C110.24,23.07,110.22,23.67,110.15,24.26z" stroke-width="0"></path>
	</g>
	<g>
		<path fill="#5bab17" d="M81.78,53.61c-5.8,3.55-11.8,6.73-17.91,9.68c-4.89,2.36-9.88,4.52-14.99,6.39
			c-0.74,0.27-1.48,0.54-2.22,0.81c-0.92,0.32-1.85,0.65-2.79,0.95c-1.06,0.36-2.13,0.71-3.2,1.04c-1.06,0.33-2.13,0.64-3.2,0.94
			c-1.16,0.33-2.33,0.63-3.5,0.92c-0.23,0.06-0.46,0.11-0.69,0.17c-0.73,0.17-1.47,0.34-2.21,0.5c-1.07,0.24-2.14,0.46-3.22,0.65
			c-1.07,0.21-2.14,0.39-3.21,0.55c-1.07,0.15-2.14,0.29-3.21,0.39c-1.48,0.15-2.97,0.24-4.47,0.26h-0.68
			c-1.99,0-4.02-0.14-6.05-0.53c-0.59-0.11-1.17-0.25-1.76-0.41c-0.05-0.01-0.09-0.03-0.14-0.04c-1.37-0.41-2.74-0.96-4.04-1.8
			c-0.75-0.48-1.47-1.09-2.08-1.81c-0.49-0.55-0.92-1.18-1.25-1.86c-0.21-0.42-0.39-0.86-0.52-1.31c-0.38-1.19-0.5-2.44-0.41-3.62
			c0.1-1.62,0.52-3.13,1.05-4.55c1.1-2.81,2.67-5.27,4.39-7.53c3.48-4.52,7.53-8.39,11.82-11.92c1.08-0.88,2.18-1.74,3.29-2.58
			l0.14,6.34l0.01,0.59c-0.01,0.01-0.01,0.02-0.02,0.02c-4.19,3.17-8.25,6.57-11.59,10.47c-1.67,1.95-3.14,4.04-4.15,6.22
			c-0.29,0.66-0.54,1.33-0.72,1.99c-0.4,1.53-0.45,3.03,0.11,4.28c0.29,0.73,0.78,1.37,1.42,1.94c0.59,0.52,1.3,0.98,2.09,1.36
			c0.5,0.25,1.03,0.47,1.58,0.66c2.34,0.78,4.93,1.14,7.55,1.24c0.67,0.03,1.34,0.04,2.01,0.04c0.78,0,1.57-0.02,2.36-0.06
			c1.07-0.03,2.15-0.11,3.22-0.21c1.07-0.09,2.14-0.22,3.21-0.36c1.69-0.23,3.38-0.51,5.06-0.84c1.53-0.3,3.05-0.64,4.57-1
			c1.04-0.25,2.07-0.52,3.1-0.79c7.84-2.12,15.5-5.02,22.91-8.4c6.34-2.95,12.5-6.34,18.3-10.24l0.03,1.04L81.78,53.61z" stroke-width="0"></path>
	</g>
</g>
</svg>
                </g>
              </g>
              <g id="shape_5Ig3EOa74L" ref="shape_5Ig3EOa74L" key="shape_5Ig3EOa74L" mask="url(#shape_vwKENdWaM6_mask)">
                <g transform="translate(-314.73147260251517,-407.56856451796705) rotate(-1,605.8971189439643,683.0954941310688) scale(1,1)" style="opacity: 1;mix-blend-mode: undefined;" filter="">
                  <!--普通元素-->
                  <svg xmlns="http://www.w3.org/2000/svg" version="1.1" xmlns:xlink="http://www.w3.org/1999/xlink" width="1211.7942378879286" height="1378.5703002132273" viewBox="0 -4.581296296064011 895.9350090454752 1019.2401942297311" data-ligature="true" data-parent="shape_5Ig3EOa74L">
  <g data-role="text" data-width="60.812920000000005" data-height="166">
    <path d="M424.1 550.91Q423.4 550.78 422.92 550.21 422.43 549.64 422.43 548.94 422.43 548.94 422.43 548.94 422.43 501.91 422.43 454.87 422.43 454.17 422.92 453.78 423.4 453.37 424.1 453.5 424.1 453.5 424.1 453.5 433.98 455.28 443.86 457.06 444.56 457.18 445.04 457.76 445.53 458.33 445.53 459.03 445.53 459.03 445.53 459.03 445.53 496.67 445.53 534.31 445.53 535.01 446.23 535.13 446.23 535.13 446.23 535.13 460.42 537.69 474.62 540.24 475.31 540.37 475.8 540.94 476.29 541.51 476.29 542.21 476.29 542.21 476.29 542.21 476.29 550.42 476.29 558.63 476.29 559.33 475.8 559.72 475.31 560.13 474.62 560 474.62 560 474.62 560 449.36 555.46 424.1 550.91 424.1 550.91 424.1 550.91" fill="rgb(255, 255, 255)" stroke="rgb(255, 255, 255)" stroke-width="0.232" data-glyph-w="60.812920000000005" data-glyph-h="166.99200000000002" data-glyph-ascender="139.16" data-glyph-descender="-27.832" data-kerning="0"></path>
  </g>
</svg>
                </g>
              </g>
    </svg>